<mxfile host="drawio-plugin" modified="2023-06-08T21:46:16.479Z" agent="5.0 (Windows NT 6.2; Win64; x64) AppleWebKit/537.36 (KHTML, like Gecko) Chrome/104.0.5112.102 Safari/537.36" etag="BzE2fPMK6JKd9dZN35Wa" version="20.5.3" type="embed"><diagram id="23iRSUPoRavnBvh4doch" name="Page-1"><mxGraphModel dx="1054" dy="741" grid="1" gridSize="10" guides="1" tooltips="1" connect="1" arrows="1" fold="1" page="1" pageScale="1" pageWidth="827" pageHeight="1169" math="0" shadow="0"><root><mxCell id="0"/><mxCell id="1" parent="0"/><mxCell id="8" style="edgeStyle=orthogonalEdgeStyle;rounded=0;orthogonalLoop=1;jettySize=auto;html=1;exitX=0.5;exitY=1;exitDx=0;exitDy=0;entryX=0.5;entryY=0;entryDx=0;entryDy=0;" edge="1" parent="1" source="2" target="7"><mxGeometry relative="1" as="geometry"/></mxCell><mxCell id="9" style="edgeStyle=orthogonalEdgeStyle;rounded=0;orthogonalLoop=1;jettySize=auto;html=1;exitX=0.5;exitY=1;exitDx=0;exitDy=0;entryX=0.5;entryY=0;entryDx=0;entryDy=0;" edge="1" parent="1" source="2" target="6"><mxGeometry relative="1" as="geometry"/></mxCell><mxCell id="2" value="Database" style="swimlane;fontStyle=0;childLayout=stackLayout;horizontal=1;startSize=26;fillColor=none;horizontalStack=0;resizeParent=1;resizeParentMax=0;resizeLast=0;collapsible=1;marginBottom=0;" vertex="1" parent="1"><mxGeometry x="320" y="70" width="160" height="52" as="geometry"/></mxCell><mxCell id="6" value="Indações" style="swimlane;fontStyle=0;childLayout=stackLayout;horizontal=1;startSize=26;fillColor=none;horizontalStack=0;resizeParent=1;resizeParentMax=0;resizeLast=0;collapsible=1;marginBottom=0;swimlaneLine=1;glass=0;sketch=0;shadow=0;rounded=0;aspect=fixed;" vertex="1" parent="1"><mxGeometry x="480" y="230" width="156.06" height="164" as="geometry"/></mxCell><mxCell id="20" value="User_Id" style="text;html=1;strokeColor=none;fillColor=none;align=center;verticalAlign=middle;whiteSpace=wrap;rounded=0;" vertex="1" parent="6"><mxGeometry y="26" width="156.06" height="30" as="geometry"/></mxCell><mxCell id="21" value="indagado A {caracteristicas e pontos}" style="text;html=1;strokeColor=none;fillColor=none;align=center;verticalAlign=middle;whiteSpace=wrap;rounded=0;" vertex="1" parent="6"><mxGeometry y="56" width="156.06" height="44" as="geometry"/></mxCell><mxCell id="19" value="indagado B&lt;br&gt;{caracteristicas e pontos}" style="text;html=1;strokeColor=none;fillColor=none;align=center;verticalAlign=middle;whiteSpace=wrap;rounded=0;" vertex="1" parent="6"><mxGeometry y="100" width="156.06" height="64" as="geometry"/></mxCell><mxCell id="7" value="Users" style="swimlane;fontStyle=0;childLayout=stackLayout;horizontal=1;startSize=26;fillColor=none;horizontalStack=0;resizeParent=1;resizeParentMax=0;resizeLast=0;collapsible=1;marginBottom=0;" vertex="1" parent="1"><mxGeometry x="180" y="230" width="140" height="146" as="geometry"/></mxCell><mxCell id="22" value="_Id" style="text;html=1;strokeColor=none;fillColor=none;align=center;verticalAlign=middle;whiteSpace=wrap;rounded=0;" vertex="1" parent="7"><mxGeometry y="26" width="140" height="30" as="geometry"/></mxCell><mxCell id="18" value="Email" style="text;html=1;strokeColor=none;fillColor=none;align=center;verticalAlign=middle;whiteSpace=wrap;rounded=0;" vertex="1" parent="7"><mxGeometry y="56" width="140" height="30" as="geometry"/></mxCell><mxCell id="17" value="Pass" style="text;html=1;strokeColor=none;fillColor=none;align=center;verticalAlign=middle;whiteSpace=wrap;rounded=0;" vertex="1" parent="7"><mxGeometry y="86" width="140" height="30" as="geometry"/></mxCell><mxCell id="14" value="Cargo { Dados de cargos }" style="text;html=1;strokeColor=none;fillColor=none;align=center;verticalAlign=middle;whiteSpace=wrap;rounded=0;" vertex="1" parent="7"><mxGeometry y="116" width="140" height="30" as="geometry"/></mxCell><mxCell id="10" value="Colections" style="text;html=1;strokeColor=none;fillColor=none;align=center;verticalAlign=middle;whiteSpace=wrap;rounded=0;" vertex="1" parent="1"><mxGeometry x="330" y="140" width="60" height="30" as="geometry"/></mxCell></root></mxGraphModel></diagram></mxfile>